<svg width="165" height="165" viewBox="0 0 165 165" fill="none" xmlns="http://www.w3.org/2000/svg">
<g filter="url(#filter0_d_22_1284)">
<rect x="22" y="12" width="121" height="121" rx="28" fill="#050507"/>
<rect x="21" y="11" width="123" height="123" rx="29" stroke="url(#paint0_linear_22_1284)" stroke-width="2" stroke-linecap="round"/>
</g>
<g clip-path="url(#clip0_22_1284)">
<path d="M43 33H122V112H43V33Z" fill="black"/>
<path d="M107.351 46.2117C101.873 46.189 94.8969 47.7272 87.3601 50.6817C85.9236 50.4039 84.4587 50.2641 82.9867 50.2666C79.1231 50.2735 75.208 51.2624 71.6218 53.3382C66.6775 56.2004 63.2043 60.6344 61.4671 65.6483C49.0795 75.548 42.4276 86.3086 45.9266 92.3849C49.5294 98.6416 62.8042 98.0408 78.1118 91.734C78.3741 91.626 78.6391 91.5176 78.9026 91.4062C78.9986 91.3657 79.0955 91.3268 79.1919 91.2858C79.4712 91.1678 79.7505 91.046 80.0308 90.9241L80.272 90.8181C80.4946 90.7205 80.7187 90.6191 80.9421 90.5188C83.9836 89.1591 87.0816 87.5847 90.1758 85.7936C92.6184 84.3799 94.9447 82.8975 97.1433 81.3721C97.2041 81.33 97.2659 81.2888 97.3266 81.2466C97.4303 81.1749 97.5318 81.1016 97.6352 81.0297C113.122 70.2278 122.037 57.4485 118.099 50.6093C116.4 47.6587 112.551 46.2334 107.351 46.2118L107.351 46.2117ZM98.6528 53.9265C102.428 53.8586 105.227 54.8285 106.435 56.9257C107.727 59.1692 106.99 62.3485 104.704 65.8652C104.228 64.454 103.609 63.0678 102.838 61.7281C101.03 58.5881 98.5887 56.0429 95.7741 54.1532C96.7836 54.0189 97.7472 53.9427 98.6529 53.9264L98.6528 53.9265ZM60.2424 74.6455C60.458 78.0585 61.4398 81.4742 63.2609 84.6362C64.046 85.9999 64.9502 87.2526 65.9514 88.3878C61.6831 88.6501 58.4999 87.7061 57.1904 85.4318C55.6752 82.801 56.95 78.8845 60.2424 74.6455ZM105.177 78.913C101.203 82.203 96.6395 85.3799 91.6178 88.2866C86.6849 91.1417 81.748 93.4807 76.9981 95.2731C82.6829 96.838 88.9682 96.2102 94.4769 93.0215C100.006 89.8214 103.696 84.6563 105.177 78.9129L105.177 78.913Z" fill="white"/>
</g>
<defs>
<filter id="filter0_d_22_1284" x="0" y="0" width="165" height="165" filterUnits="userSpaceOnUse" color-interpolation-filters="sRGB">
<feFlood flood-opacity="0" result="BackgroundImageFix"/>
<feColorMatrix in="SourceAlpha" type="matrix" values="0 0 0 0 0 0 0 0 0 0 0 0 0 0 0 0 0 0 127 0" result="hardAlpha"/>
<feMorphology radius="10" operator="dilate" in="SourceAlpha" result="effect1_dropShadow_22_1284"/>
<feOffset dy="10"/>
<feGaussianBlur stdDeviation="5"/>
<feComposite in2="hardAlpha" operator="out"/>
<feColorMatrix type="matrix" values="0 0 0 0 0 0 0 0 0 0 0 0 0 0 0 0 0 0 0.5 0"/>
<feBlend mode="normal" in2="BackgroundImageFix" result="effect1_dropShadow_22_1284"/>
<feBlend mode="normal" in="SourceGraphic" in2="effect1_dropShadow_22_1284" result="shape"/>
</filter>
<linearGradient id="paint0_linear_22_1284" x1="82.5" y1="12" x2="82.5" y2="133" gradientUnits="userSpaceOnUse">
<stop stop-color="#73B0FF"/>
<stop offset="1" stop-color="#FF29DB"/>
</linearGradient>
<clipPath id="clip0_22_1284">
<rect width="79" height="79" fill="white" transform="translate(43 33)"/>
</clipPath>
</defs>
</svg>
