<svg width="80" height="74" viewBox="0 0 80 74" fill="none" xmlns="http://www.w3.org/2000/svg">
<path d="M19.9946 0.00349076C17.3247 0.079858 14.6248 1.20461 12.2798 2.89333C9.42172 4.95192 7.04471 7.907 6.0858 11.3082C5.12623 14.7095 5.76207 18.6182 8.76778 21.8345C11.1871 24.4236 12.0874 26.7035 12.1816 28.5582C12.2755 30.4131 11.5915 31.929 10.459 33.108C8.19403 35.4664 4.27025 36.0955 2.0752 34.1197L0 36.4283C3.68953 39.7495 9.39814 38.6936 12.6952 35.2612C14.3438 33.5446 15.4229 31.1381 15.2839 28.4026C15.1451 25.667 13.818 22.6905 11.0349 19.7125C8.6939 17.207 8.35855 14.6866 9.07408 12.1485C9.78961 9.61065 11.7327 7.11128 14.0961 5.40962C16.459 3.70747 19.1934 2.85879 21.2709 3.17837C22.859 3.42308 24.187 4.1836 25.0996 6.07369L27.7455 4.548C26.3573 1.98605 24.1606 0.484604 21.7429 0.112397C21.3411 0.0506395 20.9351 0.0134517 20.5293 0.00349076C20.3517 -0.000825643 20.1727 -0.0014897 19.9948 0.00349076H19.9946ZM37.9658 2.22926L18.0232 13.7464L22.1579 20.9112C24.6532 17.9046 27.7105 15.2836 31.2888 13.2173C34.7112 11.2413 38.3352 9.92973 42.0126 9.24326L37.9658 2.22926ZM47.9317 11.7596C47.7614 11.7612 47.5889 11.7652 47.4184 11.7695C42.4555 11.9028 37.4491 13.2432 32.84 15.9045C18.0912 24.4207 13.0419 43.2223 21.546 57.9532C30.0497 72.6838 48.8564 77.7113 63.6049 69.1953C78.3532 60.6795 83.3978 41.8774 74.894 27.1469C69.1389 17.1776 58.6721 11.65 47.9319 11.7592L47.9317 11.7596Z" fill="white"/>
</svg>
