<svg width="41" height="41" viewBox="0 0 41 41" fill="none" xmlns="http://www.w3.org/2000/svg">
<path d="M20.4993 29.0417C21.4428 29.0417 22.2077 28.2768 22.2077 27.3333C22.2077 26.3898 21.4428 25.625 20.4993 25.625C19.5559 25.625 18.791 26.3898 18.791 27.3333C18.791 28.2768 19.5559 29.0417 20.4993 29.0417Z" stroke="white" stroke-width="2" stroke-linecap="round" stroke-linejoin="round"/>
<path d="M32.4583 17.0834H8.54167C6.65469 17.0834 5.125 18.6131 5.125 20.5V34.1667C5.125 36.0537 6.65469 37.5834 8.54167 37.5834H32.4583C34.3453 37.5834 35.875 36.0537 35.875 34.1667V20.5C35.875 18.6131 34.3453 17.0834 32.4583 17.0834Z" stroke="white" stroke-width="2" stroke-linecap="round" stroke-linejoin="round"/>
<path d="M11.959 17.0833V11.9583C11.959 9.6929 12.8589 7.5203 14.4608 5.91842C16.0627 4.31655 18.2353 3.41663 20.5007 3.41663C22.766 3.41663 24.9386 4.31655 26.5405 5.91842C28.1424 7.5203 29.0423 9.6929 29.0423 11.9583V17.0833" stroke="white" stroke-width="2" stroke-linecap="round" stroke-linejoin="round"/>
</svg>
