<svg width="35" height="29" viewBox="0 0 35 29" fill="none" xmlns="http://www.w3.org/2000/svg">
<path d="M18.8 26.85C19.212 27.159 19.6915 27.3656 20.199 27.453C20.7065 27.5403 21.2275 27.5057 21.719 27.3522C22.2106 27.1986 22.6586 26.9305 23.0262 26.5698C23.3938 26.2091 23.6704 25.7663 23.8332 25.2777C23.9961 24.7892 24.0405 24.269 23.9628 23.7599C23.8852 23.2508 23.6876 22.7675 23.3865 22.3497C23.0854 21.9319 22.6894 21.5917 22.231 21.357C21.7726 21.1224 21.265 21 20.75 21H1.25" stroke="white" stroke-width="2" stroke-linecap="round" stroke-linejoin="round"/>
<path d="M26.4375 8C26.853 7.44602 27.4032 7.00744 28.0359 6.7259C28.6685 6.44437 29.3627 6.32923 30.0523 6.39142C30.742 6.45361 31.4044 6.69106 31.9765 7.08122C32.5486 7.47139 33.0114 8.00132 33.3211 8.6207C33.6308 9.24007 33.777 9.92832 33.7459 10.6201C33.7148 11.3119 33.5073 11.9842 33.1433 12.5733C32.7792 13.1623 32.2706 13.6486 31.6658 13.9858C31.061 14.323 30.38 14.5 29.6875 14.5H1.25" stroke="white" stroke-width="2" stroke-linecap="round" stroke-linejoin="round"/>
<path d="M13.925 2.15C14.337 1.84102 14.8165 1.63436 15.324 1.54705C15.8315 1.45974 16.3525 1.49428 16.844 1.64783C17.3356 1.80138 17.7836 2.06953 18.1512 2.4302C18.5188 2.79087 18.7954 3.23372 18.9582 3.72226C19.1211 4.2108 19.1655 4.73105 19.0878 5.24013C19.0102 5.74921 18.8126 6.23254 18.5115 6.65031C18.2104 7.06807 17.8144 7.4083 17.356 7.64297C16.8976 7.87763 16.39 8 15.875 8H1.25" stroke="white" stroke-width="2" stroke-linecap="round" stroke-linejoin="round"/>
</svg>
