<svg width="69" height="47" viewBox="0 0 69 47" fill="none" xmlns="http://www.w3.org/2000/svg">
<path d="M57.6485 0.041241C52.6559 0.0205691 46.2977 1.42246 39.4288 4.11515C38.1195 3.86202 36.7844 3.73462 35.4429 3.73687C31.9216 3.74319 28.3534 4.64446 25.085 6.53629C20.5788 9.14488 17.4133 13.186 15.8301 17.7556C4.54012 26.7781 -1.52237 36.5853 1.66659 42.1231C4.95018 47.8255 17.0487 47.2779 31 41.53C31.239 41.4315 31.4805 41.3327 31.7207 41.2312C31.8081 41.1943 31.8965 41.1589 31.9843 41.1215C32.2389 41.0139 32.4934 40.9029 32.7489 40.7918L32.9687 40.6952C33.1716 40.6062 33.3758 40.5138 33.5795 40.4224C36.3515 39.1832 39.1749 37.7483 41.995 36.1159C44.2211 34.8275 46.3413 33.4764 48.3451 32.0862C48.4005 32.0478 48.4569 32.0102 48.5121 31.9718C48.6066 31.9064 48.6992 31.8397 48.7934 31.7741C62.9083 21.9294 71.0332 10.2824 67.4438 4.04919C65.8951 1.36002 62.3879 0.061069 57.6481 0.0413815L57.6485 0.041241ZM49.7208 7.07249C53.1613 7.01062 55.7128 7.89459 56.8135 9.80596C57.991 11.8506 57.3189 14.7482 55.2357 17.9534C54.8017 16.6672 54.2383 15.4038 53.5353 14.1828C51.8871 11.3211 49.6625 9.0013 47.0972 7.27907C48.0173 7.15673 48.8955 7.08726 49.721 7.07235L49.7208 7.07249ZM14.7139 25.9556C14.9104 29.0662 15.8052 32.1793 17.465 35.0611C18.1805 36.3039 19.0045 37.4457 19.917 38.4802C16.0269 38.7193 13.1258 37.859 11.9324 35.7862C10.5514 33.3885 11.7133 29.819 14.7139 25.9556ZM55.6667 29.845C52.0449 32.8434 47.8859 35.7389 43.3092 38.388C38.8134 40.9901 34.3139 43.1219 29.9849 44.7555C35.166 46.1817 40.8943 45.6095 45.9149 42.7034C50.954 39.7868 54.3173 35.0794 55.6666 29.8449L55.6667 29.845Z" fill="white"/>
</svg>
